/* XPM */
static char * collectible_xpm[] = {
"32 32 4 1",
" 	c #3888F8",
".	c #F8F8F8",
"+	c #F8C800",
"@	c #B85000",
"                                ",
"                                ",
"                                ",
"                                ",
"                                ",
"                            .   ",
"                                ",
"                                ",
"             ++++++             ",
"           ++++++++++           ",
"          ++++++++++++          ",
"         ++++++++++++++         ",
"         ++++++++++++++         ",
"        ++++++++++++++++        ",
"        ++++++++++++++++        ",
"        ++++++++++++++++        ",
"        @++++++++++++++@        ",
"        ++++++++++++++++        ",
"        @++++++++++++++@        ",
"         @++++++++++++@         ",
"         @++++++++++++@         ",
"       .  @++++++++++@          ",
"           @@++++++@@           ",
"    .        @@@@@@             ",
"                                ",
"                                ",
"                                ",
"                                ",
"                                ",
"                                ",
"                                ",
"                                "};
