/* XPM */
static char * exit_xpm[] = {
"32 32 7 1",
" 	c #D07008",
".	c #501010",
"+	c #A00008",
"@	c #F0C000",
"#	c #383838",
"$	c #6010F8",
"%	c #D06008",
"  ..........++++++++.++.+++++.++",
"@@@@@@@@@@@@@@@@@@@@@@@@@@@@@@@@",
"@@@@@@@@@@@@@@@@@@@@@@@@@@@@@@@@",
"                                ",
"++++++++++++++++++++++++++++++++",
"....########################....",
"@@@.########################.   ",
"   .########################.+++",
"....########################....",
" .  ########################   .",
"+.++########################+++.",
"+.++########################+++.",
"....########################....",
"+++.########################.@@@",
"+++.########################.   ",
"....########################....",
".++.########################.++.",
"....########################....",
"....########################....",
"@@@.########################.   ",
"   .########################.+++",
"   .########################.+++",
"....########################....",
"  +.########################.+  ",
"....##$#$#$#$#$#$#$#$#$#$#$#....",
".  .########################.  .",
".++.##$#$#$#$#$#$#$#$#$#$#$#.++.",
".++.#$%$%$%$%$%$%$%#%$%$%$%#.++.",
"....#%%%%%%%%%%%%%%%%%%%%%%%....",
".+++...++++++++......++++.......",
"+   +++@@@@@+  ++++++    +++++++",
"+   +.+@@@@@+  +    +    +@@+..+"};
