/* XPM */
static char *e52a23a6db104178b2df4de4b2f31fc7nrL7aUJnqaAw7Ger[] = {
/* columns rows colors chars-per-pixel */
"30 31 5 1 ",
"  c None",
". c black",
"X c #980000",
"o c #F89090",
"O c #F8F8F8",
/* pixels */
"                              ",
"                ...           ",
"             ........         ",
"              .........       ",
"            ..........        ",
"            .........O.       ",
"            .......o..        ",
"            ......o.o.        ",
"             ..o.X.o.         ",
"             ..o.ooo..        ",
"             ...ooo.o.        ",
"            .XX..ooo.         ",
"           .X.......          ",
"            .X.X..            ",
"            ...X...           ",
"           ..X.XXX..          ",
"         ....XX.XXXX.. ..     ",
"   . .. ..X..XX.XX.oo.....    ",
"  .oXoX..X..XXXX.X.o.o...     ",
"   .oooX..XXXXX.......        ",
"  .oXo.....XXX.o.             ",
"   . .   .X.....              ",
"         ......               ",
"         .XX..X.....          ",
"         ..............       ",
"        ................      ",
"         ..............       ",
"           ..........         ",
"                              ",
"                              ",
"                              "
};
