/* XPM */
static char * player1_xpm[] = {
"32 32 5 1",
" 	c #3888F8",
".	c #000000",
"+	c #F8F8F8",
"@	c #F89090",
"#	c #980000",
"                                ",
"                 ...            ",
"              ........          ",
"               .........        ",
"             ..........         ",
"             .........+.    +   ",
"             .......@..         ",
"             ......@.@.         ",
"              ..@.#.@.          ",
"              ..@.@@@..         ",
"              ...@@@.@.         ",
"             .##..@@@.          ",
"            .#.......           ",
"             .#.#..             ",
"             ...#...            ",
"            ..#.###..           ",
"          ....##.####.. ..      ",
"    . .. ..#..##.##.@@.....     ",
"   .@#@#..#..####.#.@.@...      ",
"    .@@@#..#####.......         ",
"   .@#@.....###.@.              ",
"    . .+  .#.....               ",
"          ......                ",
"    +     .##..#.....           ",
"          ..............        ",
"         ................       ",
"          ..............        ",
"            ..........          ",
"                                ",
"                                ",
"                                ",
"                                "};
