/* XPM */
static char * wall_xpm[] = {
"32 32 3 1",
" 	c #605050",
".	c #282020",
"+	c #A0A098",
"                                ",
"               .          +     ",
".                   .       ....",
"                            .+++",
"     +                 .    .+++",
"          +        +        . ++",
" +            .             .   ",
"                    +       ....",
"        .                       ",
"                        +       ",
"              +               . ",
"     +                          ",
"                                ",
"  +    ........      ......     ",
"       .++++++.      .    .     ",
"       .++++++.      .... .     ",
"    .... +++++.  ........ .   . ",
"    .  ........  .   ......     ",
"    .    .       .     .        ",
"    .    .       .     ........ ",
"    ......       .......      . ",
"                      .       . ",
"                      ......... ",
"     .                          ",
".           +      +            ",
".                               ",
".                           .   ",
".... +     .                    ",
".  .                     +      ",
"   .             +              ",
"....       +                    ",
"                              + "};
